<svg id="QE_Strap_Logo_New_Image" data-name="QE Strap Logo New Image" xmlns="http://www.w3.org/2000/svg" viewBox="0 0 616.19 60.49"><defs><style>.cls-1{fill:#f93;}.cls-2{fill:#fff;}.cls-3{fill:#f8a826;}</style></defs><title>QE Strap Logo New Trans</title><path class="cls-1" d="M616.19,60.26q-66,0-132,0c-1.17,0-1.51-.23-1.51-1.48q.07-28.73,0-57.46c0-1.12.33-1.35,1.39-1.35q66,0,132.08,0ZM506.94,42.37c1-.25,1.78-.39,2.53-.64a25.71,25.71,0,0,0,11.77-8.51c4.63-5.65,6.84-12.08,4.88-19.25-2.28-8.36-8.23-12-16.05-12.72-3.66-.33-7.08.84-10.36,2.35a25.36,25.36,0,0,0-11.95,11.31c-2.54,4.72-4,9.62-2.46,15.14,1.61,5.7,5.21,9.33,10.53,11.5.29.12.73.08.78.43s-.4.42-.68.53c-3.41,1.27-5.32,3.88-6.41,7.21-.08.23-.16.54.08.65s.33-.19.45-.39a13,13,0,0,1,6-5.59,12.67,12.67,0,0,1,8.45-.94,25.26,25.26,0,0,1,6.72,3c4.8,2.85,9.26,6.25,14.19,8.88,3.67,2,7.38,3.64,11.81,2.81,6-1.11,9.87-4.84,13.07-9.62.12-.18.25-.37,0-.52s-.36,0-.51.15c-.7.71-1.38,1.44-2.11,2.12-3.23,3-6.9,5-11.45,4.82-3.52-.17-6.57-1.81-9.61-3.38-3.89-2-7.65-4.27-11.59-6.18A61,61,0,0,0,506.94,42.37Zm43.59-2.17a.52.52,0,0,0-.61.23,15.85,15.85,0,0,1-4.39,3.47,20.24,20.24,0,0,1-8.36,2.64,11.43,11.43,0,0,1-4.85-.38c-2.73-.85-4-3.72-2.88-7,.68-2.07,1.49-4.11,2.14-6.2.22-.7.55-.81,1.18-.8,2.52,0,5-.06,7.56,0a2.38,2.38,0,0,0,2.43-1.52,10.19,10.19,0,0,0,.66-1.9c.25-.86.05-1.23-.94-1.21-2.64.06-5.28,0-7.92,0-.49,0-.77,0-.55-.62.84-2.49,1.67-5,2.41-7.49.2-.66.47-.77,1.07-.76a62.91,62.91,0,0,1,6.59.06c2.81.35,4.49-.63,5.49-3.25.55-1.46.65-1.52-.91-1.52-5.6,0-11.2,0-16.79,0a2,2,0,0,0-2.12,1.34,12.09,12.09,0,0,0-.63,1.93c-.3,1.4-.23,1.51,1.22,1.45.93,0,1.24.16.87,1.12-1.83,4.67-3.6,9.36-5.45,14-1.28,3.25-2.42,6.51-2,10.09a6.14,6.14,0,0,0,2.57,4.55,12.26,12.26,0,0,0,10.46,1.75c4.81-1.34,8.63-4.21,12-7.72A4.87,4.87,0,0,0,550.53,40.2Z"/><path class="cls-2" d="M42.17,36.37A23.37,23.37,0,0,1,36.57,52c-.48.56-.33.84.17,1.23,1.41,1.11,2.77,2.29,4.19,3.4.57.44.66.81.15,1.35-.79.84-1.29,2.33-2.28,2.49s-1.74-1.22-2.62-1.9-1.88-1.49-2.76-2.31a1.44,1.44,0,0,0-1.9-.18,21.82,21.82,0,0,1-20.2.27C4.73,53.17,1.49,47.42.4,40.4A27,27,0,0,1,2.05,25.22c3.26-7.54,9.14-11.57,17.25-12.17,7.39-.54,13.76,1.71,18.38,7.79C41,25.22,42.18,30.3,42.17,36.37ZM28.05,52c-.63-.55-1.18-1.05-1.75-1.53-2.68-2.23-2.67-2.22-.33-4.82.46-.5.77-.55,1.28-.12,1.15,1,2.41,1.86,3.5,2.92.93.92,1.42.66,2.09-.28,4.25-6,4.66-12.66,2.63-19.48S27.92,17.88,20.85,18,8.63,22.13,6.6,29a24.35,24.35,0,0,0-.47,11.75c1.81,9.19,9.41,14.39,18.34,12.55A10.35,10.35,0,0,0,28.05,52Z"/><path class="cls-1" d="M179.32,36.18c0-6.84,0-13.68,0-20.51,0-1,.23-1.28,1.23-1.27q14,.06,27.95,0c1,0,1.25.28,1.17,1.2a11.7,11.7,0,0,0,0,2.51c.14,1.13-.34,1.3-1.34,1.3-7.36,0-14.72,0-22.07,0-1,0-1.38.16-1.36,1.28.08,3.8.07,7.6,0,11.4,0,1,.26,1.19,1.2,1.19,7.11,0,14.23,0,21.35-.05,1.06,0,1.43.28,1.32,1.34a14.44,14.44,0,0,0,0,2.63c.08.88-.28,1-1.08,1-7.16,0-14.32,0-21.47,0-1.07,0-1.33.25-1.31,1.31.06,4.12.07,8.24,0,12.35,0,1.19.41,1.34,1.43,1.34,7.67,0,15.35,0,23,0,1.17,0,1.57.35,1.42,1.49s.5,2.66-.27,3.32-2.14.18-3.26.18c-8.92,0-17.83,0-26.75,0-1,0-1.18-.3-1.17-1.2C179.34,50,179.33,43.09,179.32,36.18Z"/><path class="cls-1" d="M309.47,30.34a11.79,11.79,0,0,1,8.12-4.59c6.66-.71,11.9,2.59,14,8.94a23.57,23.57,0,0,1-.31,15.87c-2.56,6.87-9.18,10.23-16,8.27a11,11,0,0,1-5.35-3.48c-.25-.28-.4-.67-.93-.86,0,.93-.05,1.79,0,2.65s-.27,1-1,1c-1.14-.12-2.62.49-3.34-.25s-.18-2.14-.19-3.25c0-13,0-25.9,0-38.85,0-1.12.31-1.47,1.39-1.36a9.64,9.64,0,0,0,2.4,0c1.13-.15,1.29.34,1.28,1.34-.06,4.47,0,9,0,13.42Zm18,12.32a16.63,16.63,0,0,0-1.62-7.43,8.09,8.09,0,0,0-7.92-4.78c-3.53.12-5.83,2.07-7.11,5.18a17.62,17.62,0,0,0,0,13.67c1.24,3.06,3.48,5.05,7,5.25,3.67.21,6.29-1.48,8-4.61A15.32,15.32,0,0,0,327.47,42.66Z"/><path class="cls-1" d="M291.39,54.9c-.79.6-1.49,1.17-2.23,1.7a14,14,0,0,1-12.31,2.19,8.48,8.48,0,0,1-6.46-8c-.28-4.2,1.53-7.33,5.21-9a27.18,27.18,0,0,1,7.45-1.66c1.66-.24,3.33-.43,5-.75,1.44-.27,2.86-.68,3.19-2.43.47-2.53-.23-4.47-1.95-5.5a7.32,7.32,0,0,0-2.94-1,14.22,14.22,0,0,0-5.12.2A5.1,5.1,0,0,0,277,35c-.13.69-.37,1-1.16,1a29,29,0,0,0-3.23,0c-.7,0-.89-.24-.85-.91a8.49,8.49,0,0,1,4.73-7.65c3.37-1.73,7-1.89,10.64-1.55a13.47,13.47,0,0,1,4.73,1.24,7.19,7.19,0,0,1,4.36,6.87c0,6,0,12,0,18,0,2.4.64,3.09,3,3.1.68,0,.83.24.78.82,0,.24,0,.48,0,.72,0,2.49-.1,2.6-2.65,2.72a9.13,9.13,0,0,1-2.5-.11,4,4,0,0,1-3.21-3C291.62,55.76,291.52,55.38,291.39,54.9ZM291.26,46c0-.88,0-1.75,0-2.63,0-.59-.12-.8-.74-.55a25.48,25.48,0,0,1-5.6,1.17c-2.28.34-4.6.54-6.69,1.65a4.59,4.59,0,0,0-2.58,4.73,4.54,4.54,0,0,0,3.41,4.16,10.69,10.69,0,0,0,4.74.25c4.72-.66,7.45-3.75,7.45-8.42Z"/><path class="cls-1" d="M353.93,43.94c-3.52,0-7,0-10.56,0-.86,0-1.06.25-1,1.08.21,6.73,5.71,11.07,11.82,9.29a7.8,7.8,0,0,0,5.18-4.94,1.3,1.3,0,0,1,1.5-1,23.07,23.07,0,0,0,2.88,0c.89-.06,1.13.24.9,1.1-1.41,5.13-4.62,8.39-9.86,9.51a16,16,0,0,1-7-.06,12.11,12.11,0,0,1-9-7.44,22.09,22.09,0,0,1,.11-17.83c2.37-5.47,7.17-8.16,13.55-7.95a13,13,0,0,1,11.82,8.37c1.13,3,1.16,6.1,1.21,9.22,0,.79-.52.64-1,.64C361,44,357.45,43.94,353.93,43.94Zm-2.69-4.08h7.92c.44,0,.87.07.84-.64-.18-4-2.31-7.45-6-8.49-5.48-1.54-10.66,1.71-11.43,8.34-.09.82.34.8.91.8C346,39.85,348.64,39.86,351.24,39.86Z"/><path class="cls-2" d="M130.87,43.22H120.44c-.51,0-1.06-.13-1.06.72,0,6.66,5.15,11.24,11.59,9.68a7.71,7.71,0,0,0,5.37-4.9,1.42,1.42,0,0,1,1.58-1.08,25.16,25.16,0,0,0,2.88,0c.84,0,1,.3.84,1.09a12.45,12.45,0,0,1-10,9.55A16.22,16.22,0,0,1,124,58c-5.15-1.55-8-5.23-9.19-10.29a23,23,0,0,1,.82-14A13.22,13.22,0,0,1,128.41,25c5.91,0,10.69,3,12.76,8.06,1.23,3,1.29,6.24,1.31,9.44,0,.81-.53.74-1,.74Zm-2.56-4.08h7.8c.5,0,1,0,.93-.72-.2-3.9-2.29-7.33-6-8.4-5.24-1.53-10.6,1.42-11.46,8.16-.09.76.19,1,.92,1C123.11,39.12,125.71,39.14,128.31,39.14Z"/><path class="cls-2" d="M97.43,43.22c-3.4,0-6.8,0-10.2,0-1,0-1.26.35-1.21,1.31.31,6.5,5.61,10.71,11.56,9.14a7.88,7.88,0,0,0,5.43-5,1.33,1.33,0,0,1,1.51-1c1,.05,1.92,0,2.88,0s1.08.35.86,1.17c-1.42,5.14-4.68,8.36-9.92,9.45A15.52,15.52,0,0,1,90.51,58c-5.15-1.57-8-5.29-9.13-10.34a23,23,0,0,1,.78-13.79c3.91-10.15,15.06-10.52,20.92-6.59a13.17,13.17,0,0,1,5.71,9.45,48.35,48.35,0,0,1,.35,5.5c0,.78-.25,1-1,1C104.55,43.2,101,43.22,97.43,43.22ZM95,39.14h7.67c.52,0,1,.09,1-.75a8.78,8.78,0,0,0-6-8.38c-5.33-1.53-10.6,1.56-11.42,8.21-.1.8.27.94,1,.93C89.79,39.13,92.39,39.14,95,39.14Z"/><path class="cls-1" d="M393,30.78c.36-.39.5-.53.62-.68,3.65-4.49,8.41-5.22,13.65-3.81A7.67,7.67,0,0,1,413.11,34c0,7.71,0,15.43,0,23.15,0,.73-.2,1-.94.95a21.45,21.45,0,0,0-3,0c-.93.09-1.11-.27-1.11-1.14,0-6.27,0-12.55,0-18.83,0-.32,0-.64,0-1,.1-2.82-.47-5.32-3.45-6.46a7.73,7.73,0,0,0-8.58,1.53c-2.39,2.23-3,5.21-3.06,8.31-.06,5.44,0,10.88,0,16.32,0,1-.27,1.33-1.26,1.23a11.79,11.79,0,0,0-2.52,0c-1.13.15-1.29-.34-1.28-1.34q0-20.51,0-41c0-1.13.33-1.47,1.4-1.35s2.71-.5,3.45.26.18,2.2.18,3.35C393,22.17,393,26.32,393,30.78Z"/><path class="cls-1" d="M442.75,59.28a16.14,16.14,0,0,1-6.35-1c-4.57-1.75-5.81-5.66-6-9,0-.6.21-.76.76-.76q1.92,0,3.84,0c.49,0,.72.17.76.68.25,3.32,2.51,5,6.41,5.37a11.35,11.35,0,0,0,4.84-.53,5.8,5.8,0,0,0,2.5-1.59,3.78,3.78,0,0,0-1.08-6.07,21.56,21.56,0,0,0-4.91-1.48A54.81,54.81,0,0,1,436.73,43c-3.06-1.21-5.31-3.1-5.56-6.66-.28-4,1.13-7.12,4.72-8.95A15.65,15.65,0,0,1,449.57,27c3.26,1.38,4.7,4.15,5,7.6,0,.56-.1.82-.7.81-1.31,0-2.63,0-3.95,0-.51,0-.65-.22-.75-.7a4.71,4.71,0,0,0-4.53-4.18,10.38,10.38,0,0,0-5.3.53,4.15,4.15,0,0,0-2.91,3.87c-.09,2,1.16,3,2.75,3.64,2.44,1.06,5.07,1.4,7.62,2.07a35.65,35.65,0,0,1,3.76,1.19c7.39,2.83,6.22,11.73,1.73,14.9a15.28,15.28,0,0,1-7.85,2.61C443.87,59.32,443.31,59.28,442.75,59.28Z"/><path class="cls-2" d="M69.26,53.48c-.64.7-1.28,1.39-1.91,2.09-3.9,4.33-12.23,3.49-15.33,1a7.81,7.81,0,0,1-3.14-6.33c-.05-7.75,0-15.51,0-23.27,0-.83.24-1.15,1.09-1.09a18,18,0,0,0,2.75,0c1-.08,1.21.3,1.2,1.22,0,6.64,0,13.28,0,19.92,0,3.68,1.15,5.71,3.77,6.67a8.2,8.2,0,0,0,8.79-2.18A11.24,11.24,0,0,0,69,44Q69,35.64,69,27.3c0-1.11.32-1.48,1.41-1.37a14.14,14.14,0,0,0,2.52,0c.93-.08,1.17.31,1.13,1.17-.06,1.16,0,2.32,0,3.48,0,8.48,0,17,0,25.43,0,1.11-.31,1.52-1.41,1.39s-2.24.39-2.9-.21-.15-1.89-.25-2.87C69.44,54.05,69.57,53.76,69.26,53.48Z"/><path class="cls-2" d="M154.22,30.69l.79-1c3.85-5.35,10-5.4,14.06-3.84a7.6,7.6,0,0,1,5.22,7.47c.09,7.67,0,15.35.05,23,0,.83-.26,1.14-1.1,1.09a18,18,0,0,0-2.75,0c-1,.09-1.2-.31-1.2-1.22q.06-10.2,0-20.39c0-3.35-1.67-5.56-4.56-6.21a7.83,7.83,0,0,0-8.88,4.1,14.12,14.12,0,0,0-1.42,6.73c0,5.24,0,10.48,0,15.72,0,1-.25,1.38-1.26,1.26-1.22-.13-2.79.52-3.58-.27s-.21-2.29-.21-3.48c0-8.79,0-17.59,0-26.39,0-1.05.26-1.35,1.33-1.33,3.25,0,3.25,0,3.25,3.23v1.51Z"/><path class="cls-1" d="M246.45,53.72H248c5.56,0,11.12,0,16.68,0,.95,0,1.28.27,1.19,1.2s.41,2.36-.22,3-1.9.17-2.89.18c-7.12,0-14.24,0-21.36,0-.87,0-1.09-.21-1.17-1.11a7.53,7.53,0,0,1,2.1-6c5.34-6.17,10.49-12.51,15.7-18.78.26-.3.49-.61.74-.94-.43-.38-.89-.21-1.3-.21-4.92,0-9.84,0-14.76,0-.94,0-1.3-.24-1.19-1.19s-.42-2.36.21-3,2-.2,3-.2c6.4,0,12.8,0,19.2,0,.9,0,1.06.26,1.15,1.13a7.3,7.3,0,0,1-2.1,5.91c-5.32,6.23-10.47,12.61-15.68,18.94C247.08,52.89,246.87,53.18,246.45,53.72Z"/><path class="cls-1" d="M372.62,43.16c0-3.8,0-7.6,0-11.4,0-.75-.16-1.15-1-1a2.41,2.41,0,0,1-.6,0c-.86-.07-2.12.41-2.5-.21-.58-.94-.16-2.25-.18-3.4,0-.46.33-.47.67-.47.88,0,1.76,0,2.64,0,.72,0,1-.17.95-.92,0-2.24,0-4.49,0-6.72,0-.77.19-1.07,1-1a31.83,31.83,0,0,0,3.24,0c.65,0,.81.22.8.83,0,2.28,0,4.56,0,6.84,0,.78.21,1,1,1,1.08-.07,2.16,0,3.24,0,.69,0,1,.14,1,.91.09,3.18.12,3.18-3,3.18-2.19,0-2.19,0-2.19,2.19v18c0,.36,0,.72,0,1.08.05,2.34.62,2.9,2.94,2.89s2.26,0,2.25,2.33c0,1.67,0,1.69-1.7,1.93a12.75,12.75,0,0,1-4.65-.08,4.49,4.49,0,0,1-3.86-4.76C372.6,50.6,372.62,46.88,372.62,43.16Z"/><path class="cls-1" d="M216.59,36.28c0-6.92,0-13.83,0-20.75,0-.89.21-1.21,1.12-1.13a15.9,15.9,0,0,0,2.76,0c.9-.07,1.22.17,1.21,1.16-.06,4.15,0,8.31,0,12.47,0,9.63,0,19.26,0,28.89,0,.94-.22,1.29-1.18,1.19-1.25-.14-2.94.53-3.66-.28s-.21-2.35-.21-3.58Q216.59,45.28,216.59,36.28Z"/><path class="cls-1" d="M234.81,42.39c0,4.84,0,9.67,0,14.51,0,.89-.15,1.34-1.16,1.22-1.25-.15-2.94.53-3.66-.28s-.2-2.36-.21-3.59c0-8.76,0-17.51,0-26.27,0-1,.12-1.49,1.27-1.34s2.8-.5,3.56.28.19,2.28.2,3.48C234.82,34.39,234.81,38.39,234.81,42.39Z"/><path class="cls-2" d="M476.51,53.26c0,3.33-1.49,5.47-3.87,5.79-1,.13-1.26-.16-1.07-1.11.07-.4.3-.47.64-.58a4.41,4.41,0,0,0,2.07-6.5,2,2,0,0,0-3.71.41c-.54,1.41-.86,2.9-1.26,4.37-.59,2.15-1.62,3.1-3.4,3.09a3.89,3.89,0,0,1-3.82-3.2,7.3,7.3,0,0,1,.24-4.48A3.8,3.8,0,0,1,465,48.63c.4-.11,1-.43,1.19.27s.29,1.28-.71,1.45c-2.46.41-2.54,4.8-1.07,6a1.78,1.78,0,0,0,3-.66c.5-1.3.83-2.67,1.2-4,.72-2.67,2-3.83,4-3.67s3.62,1.75,3.95,4.28A6.44,6.44,0,0,1,476.51,53.26Z"/><path class="cls-1" d="M425.7,19.11a15.9,15.9,0,0,1-.55,5.25,5.39,5.39,0,0,1-3.93,3.82c-.37.08-1,.45-1.05-.19s-.52-1.55.36-2A4.57,4.57,0,0,0,423,21.24c-.06-.62-.41-.56-.81-.58-2.07-.1-2.07-.1-2.07-2.17,0-1.08,0-2.16,0-3.24,0-.6.13-.86.79-.84q2,.06,4.08,0c.61,0,.74.25.73.78C425.68,16.35,425.7,17.5,425.7,19.11Z"/><path class="cls-2" d="M467.42,34.58A4.42,4.42,0,0,1,466,30.81a2.69,2.69,0,0,1,2.89-2.71c2.15,0,4.31,0,6.47,0,.59,0,1,.06,1,.82s-.36.86-1,.85c-1.88,0-3.76,0-5.63,0-1.13,0-2,.3-2.27,1.48a2.52,2.52,0,0,0,1.25,2.86,4.6,4.6,0,0,0,2.19.5c1.52,0,3,0,4.56,0,.59,0,.87.16.86.81s-.2.86-.83.86q-6.29,0-12.58,0c-.67,0-.77-.34-.78-.9s.23-.77.78-.76C464.3,34.6,465.72,34.58,467.42,34.58Z"/><path class="cls-2" d="M471.24,26c-3.92,0-6.12-2.64-5.06-6.09.79-2.58,4.31-3.83,7.51-2.65a4.51,4.51,0,0,1,2.44,6.15C475.4,25,473.66,25.94,471.24,26Zm-.32-7.44a10.67,10.67,0,0,0-1.52.31,2.63,2.63,0,0,0-1.93,2.58,2.7,2.7,0,0,0,2,2.57,5.49,5.49,0,0,0,3.75-.06,2.67,2.67,0,0,0,.07-5A5.59,5.59,0,0,0,470.92,18.51Z"/><path class="cls-2" d="M471.31,6c3.87,0,6.08,2.76,4.95,6.18-.7,2.11-3,3.23-5.95,2.91-2.5-.27-4.07-1.68-4.33-3.89C465.61,8,467.68,6,471.31,6Zm0,1.68a5.58,5.58,0,0,0-2.1.38,2.56,2.56,0,0,0-1.74,2.48,2.55,2.55,0,0,0,1.8,2.55,5.33,5.33,0,0,0,4.18-.13A2.5,2.5,0,0,0,475,10.61a2.55,2.55,0,0,0-1.48-2.41A5,5,0,0,0,471.32,7.7Z"/><path class="cls-2" d="M471.27,46.59c-3.9,0-6.2-2.79-5-6.11a3.27,3.27,0,0,1,2.3-2.24c.33-.09.87-.41,1,.21.08.45.31,1.1-.38,1.35a2.28,2.28,0,0,0-1.6,2.72c.17,1.24,1,1.94,2.61,2.26a5.48,5.48,0,0,0,3.18-.27A2.47,2.47,0,0,0,475,42.1a2.11,2.11,0,0,0-1.57-2.28c-.89-.26-.88-.93-.67-1.5.27-.75.9-.23,1.31-.08a3.58,3.58,0,0,1,2.44,3.26,4.13,4.13,0,0,1-1.79,4.17A5.81,5.81,0,0,1,471.27,46.59Z"/><path class="cls-3" d="M234.83,17.81c-.09.79.43,2.07-.18,2.69s-2,.2-3,.22c-1.87,0-1.87,0-1.87-1.89,0-1.19,0-2.39,0-3.58,0-.6.13-.87.79-.84,1.19.05,2.39,0,3.58,0,.53,0,.71.18.69.69C234.81,15.94,234.83,16.78,234.83,17.81Z"/><path class="cls-2" d="M469.32,2.18c2,0,4,0,6,0,.57,0,1,0,1,.81s-.32.86-1,.86H463c-.64,0-.92-.18-.93-.88s.45-.79,1-.78Z"/><path class="cls-1" d="M504.45,41.28c-7.89,0-12-4.22-12.6-10.43a32.9,32.9,0,0,1,4.62-19.77,16.15,16.15,0,0,1,9-7.71c6.35-2.12,13.71,1.29,14.42,9.07a33.93,33.93,0,0,1-6,22.58C511.27,38.92,507.57,41.22,504.45,41.28Z"/></svg>